<?xml version="1.0" encoding="UTF-8" standalone="no"?>
<!DOCTYPE svg PUBLIC "-//W3C//DTD SVG 1.1//EN" "http://www.w3.org/Graphics/SVG/1.1/DTD/svg11.dtd">
<svg xmlns="http://www.w3.org/2000/svg" version="1.1" viewBox="0.00 0.00 1000.00 1000.00">
<g stroke-width="2.00" fill="none" stroke-linecap="butt">
<path stroke="#53418c"  d="
  M 495.73 331.27
  Q 497.00 333.46 498.60 335.68
  Q 553.28 411.56 608.14 487.33
  Q 610.08 490.01 611.75 492.69
  A 1.43 1.42 -33.9 0 0 613.78 493.08
  L 638.82 475.16
  A 1.26 1.25 54.5 0 0 639.11 473.40
  L 504.91 286.87
  A 1.04 1.03 53.9 0 0 503.47 286.64
  L 406.56 356.63
  A 0.92 0.91 -16.8 0 0 406.18 357.33
  Q 406.14 358.78 406.90 359.84
  Q 414.53 370.55 421.69 380.60
  Q 422.62 381.90 423.92 380.96
  L 493.42 330.77
  A 1.59 1.59 0.0 0 1 495.73 331.27"
/>
<path stroke="#909398"  d="
  M 516.34 586.05
  A 0.89 0.89 0.0 0 1 515.09 585.85
  L 418.59 451.96
  A 2.52 2.51 54.3 0 1 419.16 448.44
  L 509.62 383.31
  A 0.78 0.77 54.2 0 0 509.79 382.23
  L 493.13 359.19
  A 0.82 0.82 0.0 0 0 491.98 359.00
  Q 434.23 400.78 375.85 442.33
  Q 374.17 443.52 372.50 444.37
  A 0.53 0.53 0.0 0 0 372.32 445.16
  L 505.61 629.98
  A 0.61 0.61 0.0 0 0 506.46 630.11
  L 626.08 543.63
  Q 627.54 542.57 626.42 541.04
  Q 593.79 496.12 561.47 451.27
  C 558.81 447.57 554.84 452.31 552.34 454.06
  C 536.87 464.89 522.00 476.55 506.59 487.58
  A 0.91 0.90 54.1 0 0 506.39 488.85
  L 524.63 514.19
  A 1.39 1.39 0.0 0 0 526.57 514.51
  L 551.30 496.60
  A 1.26 1.25 54.0 0 1 553.05 496.88
  L 581.56 536.44
  Q 582.68 537.98 581.13 539.10
  L 516.34 586.05"
/>
<path stroke="#909398"  d="
  M 361.39 666.16
  Q 364.50 665.87 368.88 666.15
  C 372.85 666.40 372.45 670.73 377.15 669.05
  Q 377.57 668.90 377.61 668.45
  Q 378.28 660.05 369.75 659.94
  C 365.05 659.87 355.97 658.90 354.78 665.49
  Q 354.11 669.20 354.64 681.09
  C 355.08 691.13 361.03 690.08 368.74 690.00
  Q 373.02 689.95 374.93 688.62
  C 379.39 685.53 378.05 677.31 377.99 672.47
  Q 377.99 671.97 377.48 671.97
  L 367.56 671.98
  A 1.41 1.40 89.0 0 0 366.16 673.44
  L 366.26 676.46
  A 1.57 1.56 -89.0 0 0 367.71 677.97
  L 371.50 678.24
  A 1.32 1.32 0.0 0 1 372.68 679.95
  L 371.68 683.17
  Q 371.47 683.86 370.74 683.87
  L 361.78 683.99
  A 0.96 0.96 0.0 0 1 360.81 683.03
  L 360.79 666.82
  A 0.66 0.65 87.6 0 1 361.39 666.16"
/>
<path stroke="#909398"  d="
  M 391.62 671.98
  A 0.87 0.87 0.0 0 1 390.75 671.11
  L 390.76 666.89
  A 0.87 0.87 0.0 0 1 391.63 666.02
  L 406.41 666.01
  A 0.87 0.87 0.0 0 0 407.28 665.14
  L 407.25 660.86
  A 0.87 0.87 0.0 0 0 406.39 660.00
  L 385.35 659.98
  A 0.87 0.87 0.0 0 0 384.48 660.85
  L 384.46 689.14
  A 0.87 0.87 0.0 0 0 385.33 690.01
  L 406.40 690.01
  A 0.87 0.87 0.0 0 0 407.27 689.16
  L 407.39 684.88
  A 0.87 0.87 0.0 0 0 406.52 683.99
  L 391.53 683.98
  A 0.87 0.87 0.0 0 1 390.66 683.08
  L 390.78 678.86
  A 0.87 0.87 0.0 0 1 391.65 678.02
  L 404.79 678.01
  A 0.87 0.87 0.0 0 0 405.66 677.16
  L 405.74 672.89
  A 0.87 0.87 0.0 0 0 404.87 672.00
  L 391.62 671.98"
/>
<path stroke="#909398"  d="
  M 431.51 679.42
  L 431.44 682.45
  Q 431.41 683.64 430.22 683.76
  C 426.27 684.17 420.40 684.92 419.68 681.27
  A 0.70 0.70 0.0 0 0 418.99 680.70
  L 415.69 680.68
  A 1.91 1.91 0.0 0 0 413.84 683.10
  C 415.39 688.73 418.10 690.03 423.94 690.03
  C 432.57 690.02 437.91 690.15 437.59 679.74
  C 437.32 670.66 428.81 671.93 422.62 671.97
  Q 420.21 671.99 420.11 669.58
  L 420.07 668.52
  Q 419.99 666.29 422.21 666.12
  C 425.10 665.89 430.99 665.07 432.09 668.57
  A 0.83 0.82 -7.0 0 0 432.84 669.15
  L 436.68 669.37
  Q 437.35 669.41 437.42 668.74
  C 438.36 658.55 427.78 659.70 421.25 660.08
  C 413.08 660.56 411.66 672.44 417.00 676.57
  C 419.78 678.72 427.08 678.11 430.34 678.19
  Q 431.54 678.21 431.51 679.42"
/>
<path stroke="#909398"  d="
  M 452.47 666.85
  L 452.23 688.24
  Q 452.21 690.02 453.99 690.03
  L 456.73 690.05
  Q 458.53 690.06 458.52 688.27
  L 458.49 666.68
  Q 458.49 666.11 459.07 666.11
  L 465.58 666.07
  Q 467.22 666.06 467.25 664.42
  L 467.30 661.66
  Q 467.34 659.99 465.66 659.99
  L 445.21 659.98
  Q 443.39 659.98 443.38 661.79
  L 443.37 664.38
  A 1.57 1.56 -89.1 0 0 444.88 665.95
  L 451.85 666.20
  Q 452.47 666.22 452.47 666.85"
/>
<path stroke="#909398"  d="
  M 496.79 667.71
  A 7.69 7.69 0.0 0 0 489.10 660.02
  L 480.60 660.02
  A 7.69 7.69 0.0 0 0 472.91 667.71
  L 472.91 682.31
  A 7.69 7.69 0.0 0 0 480.60 690.00
  L 489.10 690.00
  A 7.69 7.69 0.0 0 0 496.79 682.31
  L 496.79 667.71"
/>
<path stroke="#909398"  d="
  M 509.66 678.16
  C 511.52 677.69 514.65 677.63 515.58 679.73
  Q 517.45 683.97 518.93 687.90
  Q 519.80 690.21 522.27 690.10
  L 524.50 689.99
  Q 526.89 689.88 525.85 687.73
  L 521.49 678.70
  A 0.83 0.82 -27.6 0 1 521.83 677.62
  C 527.24 674.69 528.31 668.11 525.16 662.97
  C 523.85 660.85 521.55 660.08 519.25 660.05
  Q 511.73 659.94 503.88 660.00
  A 1.00 1.00 0.0 0 0 502.89 661.01
  L 502.94 688.71
  Q 502.94 689.98 504.21 690.00
  L 507.96 690.07
  Q 509.26 690.09 509.25 688.79
  L 509.16 678.81
  Q 509.15 678.29 509.66 678.16"
/>
<path stroke="#53418c"  d="
  M 571.15 684.15
  A 1.37 1.37 0.0 0 1 569.76 682.77
  L 569.82 661.56
  A 1.37 1.37 0.0 0 0 568.58 660.19
  L 565.47 659.89
  A 1.37 1.37 0.0 0 0 563.97 661.26
  L 563.97 688.57
  A 1.37 1.37 0.0 0 0 565.34 689.94
  L 584.30 689.99
  A 1.37 1.37 0.0 0 0 585.67 688.71
  L 585.88 685.48
  A 1.37 1.37 0.0 0 0 584.50 684.01
  L 571.15 684.15"
/>
<path stroke="#53418c"  d="
  M 598.74 684.04
  L 607.76 683.86
  A 1.97 1.97 0.0 0 1 609.77 685.76
  L 609.87 688.63
  Q 609.92 689.97 611.26 689.96
  L 614.03 689.93
  A 1.51 1.50 3.8 0 0 615.51 688.64
  C 616.95 678.53 613.08 670.68 609.37 662.05
  C 608.16 659.22 603.85 659.86 601.00 659.95
  Q 598.95 660.02 598.46 661.23
  Q 596.11 667.10 593.75 672.97
  C 591.77 677.88 592.06 683.00 592.27 688.09
  Q 592.34 689.97 594.22 690.02
  L 596.31 690.07
  Q 597.99 690.11 598.00 688.44
  L 598.03 684.76
  A 0.73 0.72 -90.0 0 1 598.74 684.04"
/>
<path stroke="#53418c"  d="
  M 637.50 689.89
  C 641.87 689.75 645.24 687.04 645.45 682.47
  C 645.57 679.87 644.55 676.73 644.85 673.85
  C 645.58 666.78 645.96 659.87 636.22 659.90
  Q 630.02 659.91 623.71 660.09
  Q 622.11 660.14 622.11 661.75
  L 622.25 689.23
  A 0.63 0.63 0.0 0 0 622.86 689.86
  Q 630.35 690.11 637.50 689.89"
/>
<path stroke="#909398"  d="
  M 490.6842 667.5900
  A 1.59 1.59 0.0 0 0 489.0887 666.0056
  L 480.7887 666.0345
  A 1.59 1.59 0.0 0 0 479.2043 667.6301
  L 479.2558 682.3700
  A 1.59 1.59 0.0 0 0 480.8513 683.9544
  L 489.1513 683.9255
  A 1.59 1.59 0.0 0 0 490.7357 682.3299
  L 490.6842 667.5900"
/>
<path stroke="#909398"  d="
  M 520.63 667.54
  A 1.49 1.49 0.0 0 0 519.14 666.05
  L 510.54 666.05
  A 1.49 1.49 0.0 0 0 509.05 667.54
  L 509.05 670.46
  A 1.49 1.49 0.0 0 0 510.54 671.95
  L 519.14 671.95
  A 1.49 1.49 0.0 0 0 520.63 670.46
  L 520.63 667.54"
/>
<path stroke="#53418c"  d="
  M 602.14 666.93
  L 598.56 676.76
  A 0.96 0.93 9.7 0 0 599.48 678.02
  L 607.87 677.93
  A 1.09 1.09 0.0 0 0 608.89 676.48
  L 605.58 667.14
  Q 605.39 666.61 604.83 666.48
  Q 603.79 666.26 602.73 666.44
  Q 602.29 666.52 602.14 666.93"
/>
<path stroke="#53418c"  d="
  M 627.98 666.91
  L 627.96 671.09
  A 0.90 0.90 0.0 0 0 628.85 671.99
  L 637.24 672.05
  A 2.75 2.21 0.4 0 0 640.00 669.86
  L 640.02 668.30
  A 2.75 2.21 0.4 0 0 637.28 666.07
  L 628.89 666.01
  A 0.90 0.90 0.0 0 0 627.98 666.91"
/>
<path stroke="#53418c"  d="
  M 638.00 683.98
  A 1.63 1.63 0.0 0 0 639.60 682.52
  L 639.89 679.82
  A 1.63 1.63 0.0 0 0 638.28 678.01
  L 629.58 677.99
  A 1.63 1.63 0.0 0 0 627.95 679.59
  L 627.91 682.42
  A 1.63 1.63 0.0 0 0 629.56 684.07
  L 638.00 683.98"
/>
</g>

<path fill="#855ae6" d="
  M 495.73 331.27
  A 1.59 1.59 0.0 0 0 493.42 330.77
  L 423.92 380.96
  Q 422.62 381.90 421.69 380.60
  Q 414.53 370.55 406.90 359.84
  Q 406.14 358.78 406.18 357.33
  A 0.92 0.91 -16.8 0 1 406.56 356.63
  L 503.47 286.64
  A 1.04 1.03 53.9 0 1 504.91 286.87
  L 639.11 473.40
  A 1.26 1.25 54.5 0 1 638.82 475.16
  L 613.78 493.08
  A 1.43 1.42 -33.9 0 1 611.75 492.69
  Q 610.08 490.01 608.14 487.33
  Q 553.28 411.56 498.60 335.68
  Q 497.00 333.46 495.73 331.27
  Z"
/>
<path fill="#ffffff" d="
  M 516.34 586.05
  L 581.13 539.10
  Q 582.68 537.98 581.56 536.44
  L 553.05 496.88
  A 1.26 1.25 54.0 0 0 551.30 496.60
  L 526.57 514.51
  A 1.39 1.39 0.0 0 1 524.63 514.19
  L 506.39 488.85
  A 0.91 0.90 54.1 0 1 506.59 487.58
  C 522.00 476.55 536.87 464.89 552.34 454.06
  C 554.84 452.31 558.81 447.57 561.47 451.27
  Q 593.79 496.12 626.42 541.04
  Q 627.54 542.57 626.08 543.63
  L 506.46 630.11
  A 0.61 0.61 0.0 0 1 505.61 629.98
  L 372.32 445.16
  A 0.53 0.53 0.0 0 1 372.50 444.37
  Q 374.17 443.52 375.85 442.33
  Q 434.23 400.78 491.98 359.00
  A 0.82 0.82 0.0 0 1 493.13 359.19
  L 509.79 382.23
  A 0.78 0.77 54.2 0 1 509.62 383.31
  L 419.16 448.44
  A 2.52 2.51 54.3 0 0 418.59 451.96
  L 515.09 585.85
  A 0.89 0.89 0.0 0 0 516.34 586.05
  Z"
/>
<path fill="#ffffff" d="
  M 360.79 666.82
  L 360.81 683.03
  A 0.96 0.96 0.0 0 0 361.78 683.99
  L 370.74 683.87
  Q 371.47 683.86 371.68 683.17
  L 372.68 679.95
  A 1.32 1.32 0.0 0 0 371.50 678.24
  L 367.71 677.97
  A 1.57 1.56 -89.0 0 1 366.26 676.46
  L 366.16 673.44
  A 1.41 1.40 89.0 0 1 367.56 671.98
  L 377.48 671.97
  Q 377.99 671.97 377.99 672.47
  C 378.05 677.31 379.39 685.53 374.93 688.62
  Q 373.02 689.95 368.74 690.00
  C 361.03 690.08 355.08 691.13 354.64 681.09
  Q 354.11 669.20 354.78 665.49
  C 355.97 658.90 365.05 659.87 369.75 659.94
  Q 378.28 660.05 377.61 668.45
  Q 377.57 668.90 377.15 669.05
  C 372.45 670.73 372.85 666.40 368.88 666.15
  Q 364.50 665.87 361.39 666.16
  A 0.66 0.65 87.6 0 0 360.79 666.82
  Z"
/>
<path fill="#ffffff" d="
  M 391.62 671.98
  L 404.87 672.00
  A 0.87 0.87 0.0 0 1 405.74 672.89
  L 405.66 677.16
  A 0.87 0.87 0.0 0 1 404.79 678.01
  L 391.65 678.02
  A 0.87 0.87 0.0 0 0 390.78 678.86
  L 390.66 683.08
  A 0.87 0.87 0.0 0 0 391.53 683.98
  L 406.52 683.99
  A 0.87 0.87 0.0 0 1 407.39 684.88
  L 407.27 689.16
  A 0.87 0.87 0.0 0 1 406.40 690.01
  L 385.33 690.01
  A 0.87 0.87 0.0 0 1 384.46 689.14
  L 384.48 660.85
  A 0.87 0.87 0.0 0 1 385.35 659.98
  L 406.39 660.00
  A 0.87 0.87 0.0 0 1 407.25 660.86
  L 407.28 665.14
  A 0.87 0.87 0.0 0 1 406.41 666.01
  L 391.63 666.02
  A 0.87 0.87 0.0 0 0 390.76 666.89
  L 390.75 671.11
  A 0.87 0.87 0.0 0 0 391.62 671.98
  Z"
/>
<path fill="#ffffff" d="
  M 430.34 678.19
  C 427.08 678.11 419.78 678.72 417.00 676.57
  C 411.66 672.44 413.08 660.56 421.25 660.08
  C 427.78 659.70 438.36 658.55 437.42 668.74
  Q 437.35 669.41 436.68 669.37
  L 432.84 669.15
  A 0.83 0.82 -7.0 0 1 432.09 668.57
  C 430.99 665.07 425.10 665.89 422.21 666.12
  Q 419.99 666.29 420.07 668.52
  L 420.11 669.58
  Q 420.21 671.99 422.62 671.97
  C 428.81 671.93 437.32 670.66 437.59 679.74
  C 437.91 690.15 432.57 690.02 423.94 690.03
  C 418.10 690.03 415.39 688.73 413.84 683.10
  A 1.91 1.91 0.0 0 1 415.69 680.68
  L 418.99 680.70
  A 0.70 0.70 0.0 0 1 419.68 681.27
  C 420.40 684.92 426.27 684.17 430.22 683.76
  Q 431.41 683.64 431.44 682.45
  L 431.51 679.42
  Q 431.54 678.21 430.34 678.19
  Z"
/>
<path fill="#ffffff" d="
  M 451.85 666.20
  L 444.88 665.95
  A 1.57 1.56 -89.1 0 1 443.37 664.38
  L 443.38 661.79
  Q 443.39 659.98 445.21 659.98
  L 465.66 659.99
  Q 467.34 659.99 467.30 661.66
  L 467.25 664.42
  Q 467.22 666.06 465.58 666.07
  L 459.07 666.11
  Q 458.49 666.11 458.49 666.68
  L 458.52 688.27
  Q 458.53 690.06 456.73 690.05
  L 453.99 690.03
  Q 452.21 690.02 452.23 688.24
  L 452.47 666.85
  Q 452.47 666.22 451.85 666.20
  Z"
/>
<path fill="#ffffff" d="
  M 496.79 682.31
  A 7.69 7.69 0.0 0 1 489.10 690.00
  L 480.60 690.00
  A 7.69 7.69 0.0 0 1 472.91 682.31
  L 472.91 667.71
  A 7.69 7.69 0.0 0 1 480.60 660.02
  L 489.10 660.02
  A 7.69 7.69 0.0 0 1 496.79 667.71
  L 496.79 682.31
  Z
  M 490.6842 667.5900
  A 1.59 1.59 0.0 0 0 489.0887 666.0056
  L 480.7887 666.0345
  A 1.59 1.59 0.0 0 0 479.2043 667.6301
  L 479.2558 682.3700
  A 1.59 1.59 0.0 0 0 480.8513 683.9544
  L 489.1513 683.9255
  A 1.59 1.59 0.0 0 0 490.7357 682.3299
  L 490.6842 667.5900
  Z"
/>
<path fill="#ffffff" d="
  M 509.16 678.81
  L 509.25 688.79
  Q 509.26 690.09 507.96 690.07
  L 504.21 690.00
  Q 502.94 689.98 502.94 688.71
  L 502.89 661.01
  A 1.00 1.00 0.0 0 1 503.88 660.00
  Q 511.73 659.94 519.25 660.05
  C 521.55 660.08 523.85 660.85 525.16 662.97
  C 528.31 668.11 527.24 674.69 521.83 677.62
  A 0.83 0.82 -27.6 0 0 521.49 678.70
  L 525.85 687.73
  Q 526.89 689.88 524.50 689.99
  L 522.27 690.10
  Q 519.80 690.21 518.93 687.90
  Q 517.45 683.97 515.58 679.73
  C 514.65 677.63 511.52 677.69 509.66 678.16
  Q 509.15 678.29 509.16 678.81
  Z
  M 520.63 667.54
  A 1.49 1.49 0.0 0 0 519.14 666.05
  L 510.54 666.05
  A 1.49 1.49 0.0 0 0 509.05 667.54
  L 509.05 670.46
  A 1.49 1.49 0.0 0 0 510.54 671.95
  L 519.14 671.95
  A 1.49 1.49 0.0 0 0 520.63 670.46
  L 520.63 667.54
  Z"
/>
<path fill="#855ae6" d="
  M 571.15 684.15
  L 584.50 684.01
  A 1.37 1.37 0.0 0 1 585.88 685.48
  L 585.67 688.71
  A 1.37 1.37 0.0 0 1 584.30 689.99
  L 565.34 689.94
  A 1.37 1.37 0.0 0 1 563.97 688.57
  L 563.97 661.26
  A 1.37 1.37 0.0 0 1 565.47 659.89
  L 568.58 660.19
  A 1.37 1.37 0.0 0 1 569.82 661.56
  L 569.76 682.77
  A 1.37 1.37 0.0 0 0 571.15 684.15
  Z"
/>
<path fill="#855ae6" d="
  M 598.03 684.76
  L 598.00 688.44
  Q 597.99 690.11 596.31 690.07
  L 594.22 690.02
  Q 592.34 689.97 592.27 688.09
  C 592.06 683.00 591.77 677.88 593.75 672.97
  Q 596.11 667.10 598.46 661.23
  Q 598.95 660.02 601.00 659.95
  C 603.85 659.86 608.16 659.22 609.37 662.05
  C 613.08 670.68 616.95 678.53 615.51 688.64
  A 1.51 1.50 3.8 0 1 614.03 689.93
  L 611.26 689.96
  Q 609.92 689.97 609.87 688.63
  L 609.77 685.76
  A 1.97 1.97 0.0 0 0 607.76 683.86
  L 598.74 684.04
  A 0.73 0.72 -90.0 0 0 598.03 684.76
  Z
  M 602.14 666.93
  L 598.56 676.76
  A 0.96 0.93 9.7 0 0 599.48 678.02
  L 607.87 677.93
  A 1.09 1.09 0.0 0 0 608.89 676.48
  L 605.58 667.14
  Q 605.39 666.61 604.83 666.48
  Q 603.79 666.26 602.73 666.44
  Q 602.29 666.52 602.14 666.93
  Z"
/>
<path fill="#855ae6" d="
  M 645.45 682.47
  C 645.24 687.04 641.87 689.75 637.50 689.89
  Q 630.35 690.11 622.86 689.86
  A 0.63 0.63 0.0 0 1 622.25 689.23
  L 622.11 661.75
  Q 622.11 660.14 623.71 660.09
  Q 630.02 659.91 636.22 659.90
  C 645.96 659.87 645.58 666.78 644.85 673.85
  C 644.55 676.73 645.57 679.87 645.45 682.47
  Z
  M 627.98 666.91
  L 627.96 671.09
  A 0.90 0.90 0.0 0 0 628.85 671.99
  L 637.24 672.05
  A 2.75 2.21 0.4 0 0 640.00 669.86
  L 640.02 668.30
  A 2.75 2.21 0.4 0 0 637.28 666.07
  L 628.89 666.01
  A 0.90 0.90 0.0 0 0 627.98 666.91
  Z
  M 638.00 683.98
  A 1.63 1.63 0.0 0 0 639.60 682.52
  L 639.89 679.82
  A 1.63 1.63 0.0 0 0 638.28 678.01
  L 629.58 677.99
  A 1.63 1.63 0.0 0 0 627.95 679.59
  L 627.91 682.42
  A 1.63 1.63 0.0 0 0 629.56 684.07
  L 638.00 683.98
  Z"
/>

</svg>
